<svg width="20" height="20" viewBox="0 0 20 20" fill="none" xmlns="http://www.w3.org/2000/svg">
<g clip-path="url(#clip0_4375_3915)">
<path d="M6.68813 2.40118C8.08421 1.77029 9.66013 1.55372 11.184 1.75617C12.7315 1.95861 14.2128 2.61775 15.3959 3.63C16.5317 4.58104 17.3977 5.84282 17.8757 7.23642C18.4247 8.82306 18.4673 10.5792 17.9988 12.1799C17.4778 13.958 16.3732 15.5111 14.8611 16.5915C13.892 17.2814 12.7846 17.7552 11.6146 17.9804C9.627 18.357 7.51631 17.9898 5.79369 16.9446C5.68484 16.8975 5.58072 16.7798 5.45295 16.8316L2.42889 17.6084L3.23341 14.6705C3.28074 14.567 3.18609 14.4822 3.13876 14.3881C2.22539 13.0039 1.75214 11.3372 1.79947 9.67994C1.84679 6.29009 4.02374 3.60646 6.67393 2.38235" fill="#242424"/>
<path d="M6.68813 2.40118C8.08421 1.77029 9.66013 1.55372 11.184 1.75617C12.7315 1.95861 14.2128 2.61775 15.3959 3.63C16.5317 4.58104 17.3977 5.84282 17.8757 7.23642C18.4247 8.82306 18.4673 10.5792 17.9988 12.1799C17.4778 13.958 16.3732 15.5111 14.8611 16.5915C13.892 17.2814 12.7846 17.7552 11.6146 17.9804C9.627 18.357 7.51631 17.9898 5.79369 16.9446C5.68484 16.8975 5.58072 16.7798 5.45295 16.8316L2.42889 17.6084L3.23341 14.6705C3.28074 14.567 3.18609 14.4822 3.13876 14.3881C2.22539 13.0039 1.75214 11.3372 1.79947 9.67994C1.84679 6.29009 4.02374 3.60646 6.67393 2.38235" fill="#40C351"/>
<path fill-rule="evenodd" clip-rule="evenodd" d="M4.32207 1.80815C6.50848 0.254468 9.33851 -0.338756 11.9887 0.188554C13.7049 0.526407 15.3004 1.3111 16.6123 2.46258C18.4691 4.08193 19.6534 6.33093 19.9345 8.77146C20.1228 10.3827 19.9116 12.0153 19.3193 13.5267C18.6189 15.3158 17.379 16.8883 15.8078 17.9994C14.2938 19.0741 12.506 19.7023 10.6494 19.812C8.79121 19.9257 6.93826 19.5179 5.3017 18.635L0.00131226 20.0003L1.3974 14.9156C1.42372 14.8588 1.38903 14.8102 1.35743 14.7659L1.35007 14.7555C0.302721 12.8956 -0.112281 10.7487 0.166949 8.63492C0.539509 5.88776 2.03847 3.41656 4.30787 1.80815H4.32207ZM7.11345 5.32052C7.33588 5.32523 7.48259 5.52297 7.56777 5.69717C7.73003 6.04692 7.87374 6.40282 8.01745 6.75871L8.01749 6.7588C8.12526 7.02569 8.23304 7.29258 8.34863 7.55688C8.40542 7.684 8.44328 7.82525 8.39596 7.96178C8.28918 8.26277 8.07531 8.49984 7.8631 8.73508L7.86309 8.73509L7.86309 8.7351C7.79315 8.81263 7.72338 8.88996 7.65769 8.96932C7.56304 9.07761 7.5725 9.23298 7.64822 9.34597C8.37586 10.7522 9.62242 11.8236 11.1266 12.3356C11.2686 12.3968 11.4389 12.3827 11.5383 12.2603C11.8221 11.9452 12.0906 11.6169 12.3428 11.2763C12.5596 10.995 12.7483 11.0732 13.0302 11.1901L13.0338 11.1916L14.8511 12.0626C14.993 12.1238 15.135 12.2273 15.1208 12.3921C15.2155 13.6162 14.1128 14.5673 12.9581 14.6049C9.97661 14.3884 7.94164 12.7405 6.47457 10.8384L6.37369 10.6991C5.92206 10.0758 5.46234 9.44138 5.21573 8.70096C4.96491 8.00415 4.95544 7.20848 5.25359 6.5211C5.71264 5.60301 6.1149 5.2499 7.12765 5.3064L7.11345 5.32052ZM2.8645 5.82438C3.72582 4.32249 5.07457 3.10779 6.65996 2.40157L6.66469 2.42041C8.06551 1.78952 9.64616 1.57294 11.1606 1.77539C12.717 1.98708 14.1801 2.63726 15.3772 3.64923C16.515 4.60742 17.3717 5.85338 17.857 7.25565C18.4059 8.85209 18.4488 10.5777 17.9801 12.1992C17.4591 13.9772 16.3545 15.5303 14.8424 16.6107C13.8748 17.3033 12.7668 17.7773 11.5959 17.9996C9.59303 18.3773 7.52045 18.0068 5.77498 16.9591C5.75278 16.947 5.73036 16.9329 5.70759 16.9184C5.62358 16.8653 5.53477 16.8091 5.43424 16.8461C4.91177 16.9773 4.39056 17.1134 3.86996 17.2494C3.38143 17.3771 2.89344 17.5046 2.40545 17.6276L3.20997 14.6898C3.24008 14.6037 3.1924 14.5295 3.14781 14.4601C3.13631 14.4422 3.12502 14.4247 3.11532 14.4073C2.20196 13.0184 1.72871 11.3564 1.77603 9.69916C1.80443 8.34322 2.18303 7.00141 2.8645 5.82438Z" fill="#FCFCFC"/>
</g>
<defs>
<clipPath id="clip0_4375_3915">
<rect width="20" height="20" fill="white"/>
</clipPath>
</defs>
</svg>
